<svg width="34" height="36" viewBox="0 0 34 36" fill="none" xmlns="http://www.w3.org/2000/svg">
<path d="M17.2363 0.0712891C17.3696 0.0749143 17.473 0.0798924 17.543 0.0830078C17.5777 0.084553 17.6042 0.0850004 17.6221 0.0859375C17.631 0.086406 17.6381 0.0876376 17.6426 0.0878906H17.6523C25.6623 0.122979 29.2461 2.74062 30.123 3.55176L30.125 3.55273C33.0552 6.11155 34.6965 11.7923 33.5908 20.8281C33.0607 25.1903 31.1603 27.5749 29.2529 28.918C27.5801 30.0958 25.9027 30.4742 25.1133 30.6797L24.832 30.7588C24.3347 30.9183 19.9249 32.0282 14.1787 31.5439L14.1465 31.541L14.126 31.5654C13.4886 32.3038 12.6484 33.2727 12.04 33.9326C11.7614 34.2335 11.5082 34.5313 11.2705 34.7979C11.032 35.0654 10.8081 35.3034 10.584 35.4922C10.3597 35.681 10.1372 35.8188 9.90332 35.8877C9.67071 35.9561 9.42265 35.9578 9.14355 35.8701H9.14258C8.69115 35.7321 8.47219 35.3182 8.36719 34.9209C8.31509 34.7237 8.29287 34.5343 8.2832 34.3945C8.27841 34.3251 8.27672 34.2681 8.27637 34.2285V34.165L8.28418 30.5371V30.4746H8.22168C4.04743 29.2918 1.99069 26.528 0.987305 23.4746C-0.0180406 20.4149 0.0349493 17.0662 0.0839844 14.7275C0.181885 10.0585 1.08389 6.30375 3.62793 3.74805C5.91686 1.63849 9.41762 0.721035 12.3555 0.333008C13.8227 0.139227 15.1465 0.0783752 16.1035 0.0654297C16.582 0.0589613 16.9694 0.064032 17.2363 0.0712891ZM16.1895 2.47363C15.3738 2.47969 14.2457 2.5253 12.9951 2.68164C10.4968 2.99398 7.49722 3.75134 5.53223 5.54004L5.53027 5.54199C3.34188 7.71088 2.60644 10.9307 2.5293 14.8369C2.49084 16.7849 2.36578 19.6364 3.14551 22.248C3.92335 24.8532 5.60272 27.2229 9.16016 28.2285C9.16013 28.2334 9.16018 28.2386 9.16016 28.2441C9.15995 28.2848 9.15956 28.3447 9.15918 28.4209C9.15841 28.5733 9.15659 28.7914 9.15527 29.0547C9.15265 29.5816 9.14901 30.2899 9.14551 31.0127C9.13852 32.456 9.13186 33.96 9.13184 34.2061C9.13004 34.3955 9.15473 34.5462 9.20215 34.6582C9.24994 34.7709 9.32252 34.8482 9.41602 34.8828C9.50866 34.9171 9.61112 34.9058 9.71094 34.8643C9.81064 34.8227 9.91215 34.7493 10.0088 34.6523V34.6514C10.5781 34.0762 11.7738 32.6859 12.8252 31.4414C13.3512 30.8188 13.8421 30.232 14.2012 29.8008C14.3807 29.5852 14.5281 29.408 14.6299 29.2852C14.6806 29.2239 14.7202 29.1761 14.7471 29.1436C14.7555 29.1333 14.7626 29.1243 14.7686 29.1172C19.6426 29.4278 23.5207 28.4615 23.9463 28.3262C24.4233 28.1723 26.0194 27.9715 27.5967 26.8955C29.1798 25.8154 30.7474 23.855 31.2012 20.1826C31.6674 16.4061 31.5818 13.2256 31.0654 10.7188C30.5815 8.36973 29.7179 6.60666 28.5703 5.49902L28.3369 5.28613C27.5644 4.58338 24.2999 2.52963 17.5088 2.50098H17.5039C17.5 2.50073 17.494 2.50045 17.4863 2.5C17.4709 2.4991 17.448 2.4976 17.418 2.49609C17.3579 2.49308 17.2693 2.48911 17.1553 2.48535C16.9273 2.47784 16.5973 2.47061 16.1895 2.47363ZM9.95898 7.72949C10.2711 7.56605 10.5725 7.51393 10.8428 7.55957C11.1126 7.60516 11.3568 7.74932 11.5547 7.98828L11.5557 7.98926L11.5576 7.99219C11.5593 7.99416 11.5623 7.99726 11.5654 8.00098C11.5718 8.00864 11.5809 8.01991 11.5928 8.03418C11.6172 8.06359 11.6527 8.10647 11.6963 8.15918C11.7834 8.26461 11.9036 8.41036 12.0352 8.57227C12.167 8.73452 12.3101 8.91276 12.4434 9.08203L12.792 9.53906C13.14 10.0142 13.6079 10.778 13.8525 11.2061C14.2649 11.946 14.0043 12.6921 13.6094 12.9961L13.6084 12.9971L12.7686 13.6719C12.5389 13.8571 12.4412 14.1197 12.4004 14.3301C12.3799 14.4358 12.3736 14.5306 12.3721 14.5986C12.3713 14.6322 12.3713 14.6595 12.3721 14.6787C12.3724 14.6881 12.3737 14.6959 12.374 14.7012V14.709L12.373 14.71L12.376 14.7207V14.7217C12.3761 14.7223 12.3766 14.7234 12.377 14.7246C12.3776 14.727 12.3786 14.7307 12.3799 14.7354C12.3825 14.7446 12.3864 14.7587 12.3916 14.7764C12.402 14.8118 12.4178 14.8636 12.4395 14.9297C12.483 15.0627 12.5511 15.2537 12.6465 15.4863C12.8373 15.9516 13.1402 16.5845 13.5898 17.2549C14.4329 18.5117 15.7928 19.9028 17.8936 20.5684L18.3232 20.6924L18.334 20.6934H18.335L18.3359 20.6943C18.3374 20.6944 18.3401 20.6942 18.3428 20.6943C18.348 20.6947 18.3558 20.6949 18.3652 20.6953C18.3844 20.696 18.4117 20.697 18.4453 20.6963C18.5131 20.6948 18.6075 20.6876 18.7129 20.667C18.8964 20.6311 19.1195 20.5518 19.2959 20.3779L19.3682 20.2979L20.041 19.4541V19.4531C20.3437 19.0567 21.0868 18.7955 21.8232 19.209C22.8495 19.7908 24.155 20.6955 25.0186 21.5137L25.0215 21.5166C25.2558 21.7082 25.3978 21.9482 25.4424 22.2158C25.487 22.4839 25.4345 22.7849 25.2715 23.0986L25.2646 23.1123V23.123C24.8897 23.7821 24.3556 24.472 23.7383 24.9395C23.1226 25.4056 22.4339 25.6439 21.7393 25.4277L21.7383 25.4268L21.7256 25.4072L21.7031 25.4014L21.4062 25.3086C20.6615 25.0557 19.5708 24.5547 18.4082 23.9238C17.0808 23.2035 15.6648 22.3161 14.5693 21.4404C13.4389 20.5437 12.4056 19.4854 11.6104 18.4697L11.3398 18.1221C10.7096 17.2935 10.0762 16.3312 9.45898 15.2021L8.95312 14.2578C8.49878 13.3831 8.19298 12.7141 7.99219 12.2354C7.85842 11.9164 7.77149 11.6817 7.71777 11.5273C7.69092 11.4502 7.67283 11.3922 7.66113 11.3545C7.65545 11.3362 7.6511 11.3226 7.64844 11.3135C7.6471 11.3089 7.64613 11.3049 7.64551 11.3027L7.64453 11.3008V11.2998L7.64355 11.2969L7.60645 11.165C7.44806 10.5056 7.68373 9.85432 8.12207 9.26953C8.58633 8.65031 9.27248 8.11371 9.93164 7.7373H9.94531L9.95898 7.72949ZM16.7559 6.50684C19.3217 6.52431 21.6341 7.42224 23.3105 9.08008C24.9867 10.7377 26.0313 13.1596 26.0557 16.2314C26.0572 16.3654 26.0088 16.4618 25.9385 16.5254C25.8669 16.59 25.769 16.6242 25.6689 16.625C25.5689 16.6257 25.4706 16.5928 25.3984 16.5293C25.3275 16.4668 25.2773 16.3712 25.2773 16.2373L25.2627 15.7051C25.1335 13.0821 24.1936 11.0338 22.7441 9.61426C21.1986 8.10067 19.0787 7.30687 16.7578 7.28906C16.6261 7.28751 16.531 7.23646 16.4688 7.16504C16.4057 7.0925 16.373 6.99415 16.373 6.89453C16.3732 6.79491 16.4058 6.69745 16.4688 6.62598C16.5306 6.55578 16.6247 6.50706 16.7559 6.50684ZM17.5781 8.86914C19.5947 9.01576 21.1354 9.7847 22.1621 10.9346C23.189 12.0847 23.7061 13.6202 23.668 15.3076V15.3086C23.6664 15.4427 23.6155 15.537 23.5439 15.5977C23.4713 15.6592 23.3733 15.6901 23.2734 15.6875C23.1733 15.6848 23.0749 15.6487 23.0039 15.583C22.9342 15.5184 22.8866 15.422 22.8896 15.29C22.925 13.7861 22.4751 12.4407 21.5674 11.4385C20.7163 10.4987 19.4672 9.86517 17.8525 9.68164L17.5244 9.65137C17.3929 9.64204 17.3023 9.58517 17.2451 9.50977C17.187 9.43309 17.16 9.33272 17.167 9.23242C17.174 9.13217 17.2142 9.0364 17.2822 8.96875C17.3491 8.90229 17.4468 8.85994 17.5781 8.86914ZM18.2656 11.3086C19.231 11.3607 19.9742 11.6639 20.4883 12.1963C21.0026 12.729 21.2952 13.4985 21.3438 14.4971C21.3499 14.6311 21.305 14.7295 21.2373 14.7959C21.1684 14.8634 21.0722 14.9016 20.9727 14.9062C20.8732 14.9109 20.774 14.882 20.6992 14.8213C20.6441 14.7765 20.5994 14.7126 20.5781 14.627L20.5654 14.5332C20.5265 13.7516 20.3243 13.1598 19.9346 12.7529C19.5444 12.3457 18.9753 12.1335 18.2236 12.0908C18.0904 12.083 17.998 12.0276 17.9395 11.9531C17.8799 11.8772 17.8526 11.777 17.8584 11.6768C17.8642 11.5765 17.9032 11.4806 17.9707 11.4121C18.0204 11.3617 18.0871 11.3238 18.1729 11.3115L18.2656 11.3086Z" fill="#4B2F32" stroke="#4B2F32" stroke-width="0.125"/>
</svg>
