<svg width="35" height="25" viewBox="0 0 35 25" fill="none" xmlns="http://www.w3.org/2000/svg">
<path d="M1.91211 0.75H29.1279C29.4424 0.75 29.6033 0.818883 29.6748 0.866211C29.7381 0.908181 29.7644 0.953188 29.7773 1.00391C29.8126 1.14253 29.7506 1.38449 29.5693 1.53613L29.5674 1.53809L17.4863 11.7109C17.437 11.7523 17.4067 11.7667 17.3965 11.7705C17.3944 11.7713 17.3925 11.7703 17.3916 11.7705C17.3814 11.7692 17.2979 11.7559 17.1299 11.6133L17.1279 11.6113L10.9443 6.40332L10.9424 6.40039L10.2979 5.86328C9.76412 5.39255 9.14039 5.10694 8.47461 5.2002C7.80681 5.29384 7.30768 5.73947 6.96191 6.26855C6.40521 7.11397 6.42656 8.58404 7.54492 9.53125L7.5459 9.53223L8.71582 10.5176V10.5186L15.8555 16.5469V16.5459C16.3236 16.9422 16.8239 17.1642 17.3535 17.1797C17.874 17.1948 18.3225 17.0079 18.6846 16.7803C19.0413 16.556 19.3596 16.2624 19.627 16.0039C19.9156 15.7248 20.1317 15.4986 20.3584 15.3066L32.7168 4.86133C32.7224 4.85656 32.7279 4.85161 32.7334 4.84668C33.3101 4.3282 33.7725 4.25036 33.9775 4.29004C34.0646 4.3069 34.1137 4.34246 34.1494 4.3916C34.1905 4.44822 34.2499 4.57564 34.25 4.82227V22.8037C34.2502 23.0069 34.2154 23.2063 34.1494 23.3896C34.0834 23.5729 33.9887 23.7336 33.875 23.8643C33.7614 23.9948 33.6313 24.0925 33.4971 24.1562C33.3635 24.2196 33.2247 24.2501 33.0879 24.25H1.91309C1.3614 24.2498 0.75 23.7062 0.75 22.7988V2.19629C0.749849 1.99309 0.784567 1.7937 0.850586 1.61035C0.916605 1.42709 1.01135 1.26635 1.125 1.13574C1.23864 1.00525 1.36865 0.907534 1.50293 0.84375C1.63651 0.780365 1.77526 0.749915 1.91211 0.75Z" stroke="#4B2F32" stroke-width="1.5" stroke-linecap="round" stroke-linejoin="round"/>
</svg>
