<svg width="32" height="36" viewBox="0 0 32 36" fill="none" xmlns="http://www.w3.org/2000/svg">
<path d="M12.6112 7.83803C12.3619 6.58636 12.2323 5.31476 12.224 4.03964C12.2151 2.7677 11.1881 1.7233 9.89339 1.59689L3.88668 1.01279C2.34217 0.862845 1.01984 2.05022 1.00199 3.56713C0.828895 18.8435 11.9456 32.1069 27.3077 34.9533C28.8334 35.2357 30.2852 34.207 30.4395 32.698L30.9722 27.4663C31.1667 25.5563 30.3209 24.3698 29.0467 24.11C27.7689 23.851 26.5185 23.4766 25.3117 22.9915C24.5958 22.706 23.8142 22.6153 23.0497 22.7289C22.2853 22.8425 21.5666 23.1561 20.9699 23.6366L18.1433 25.8971C13.7573 22.9929 10.3309 18.9046 8.28196 14.1306L11.1087 11.8692C11.7083 11.3924 12.1647 10.7659 12.4294 10.0562C12.6941 9.34647 12.7563 8.57998 12.6112 7.83803Z" stroke="white" stroke-width="1.5" stroke-linecap="round" stroke-linejoin="round"/>
</svg>
