<svg width="32" height="42" viewBox="0 0 32 42" fill="none" xmlns="http://www.w3.org/2000/svg">
<path d="M15.9997 1.5C7.81469 1.5 1.17969 8.135 1.17969 16.32V17.4C1.77969 25.52 8.51969 32.05 15.9997 40.5C23.8097 31.68 30.8197 25 30.8197 16.32C30.8197 8.135 24.1847 1.5 15.9997 1.5ZM25.9997 16.33C25.9997 21.853 21.5227 26.33 15.9997 26.33C10.4767 26.33 5.99969 21.853 5.99969 16.33C5.99969 10.807 10.4767 6.33 15.9997 6.33C21.5227 6.33 25.9997 10.807 25.9997 16.33ZM21.9497 12.424C21.9497 12.9662 21.7343 13.4863 21.3509 13.8697C20.9674 14.2531 20.4474 14.4685 19.9052 14.4685C19.363 14.4685 18.8429 14.2531 18.4595 13.8697C18.0761 13.4863 17.8607 12.9662 17.8607 12.424C17.8607 11.8816 18.0761 11.3615 18.4597 10.978C18.8432 10.5945 19.3633 10.379 19.9057 10.379C20.4481 10.379 20.9682 10.5945 21.3517 10.978C21.7352 11.3615 21.9497 11.8816 21.9497 12.424Z" stroke="black" stroke-width="1.5" stroke-linecap="round" stroke-linejoin="round"/>
</svg>
