<svg width="64" height="64" viewBox="0 0 64 64" fill="none" xmlns="http://www.w3.org/2000/svg">
<path d="M37.4386 49.8585C37.4386 48.9145 32.0106 43.6025 25.4053 38.0851C12.8666 27.6091 8.67728 18.7838 13.8093 13.6531C18.032 9.43046 21.4426 11.8291 27.9266 23.5851C33.04 32.8558 34.1893 33.8225 35.252 29.7438C37.092 22.6811 44.6946 13.4211 49.02 12.9745C54.604 12.3985 54.1533 20.4731 47.872 33.5451C43.9146 41.7798 37.4386 51.9038 37.4386 49.8585Z" stroke="#554874" stroke-width="2" stroke-linecap="round" stroke-linejoin="round"/>
<path d="M41.4878 50.1652C54.1705 39.6052 61.2559 16.5692 53.3279 11.6692C48.0265 8.39316 39.4705 12.4532 34.7559 20.4798C34.0421 21.6958 33.3772 21.7256 32.7612 20.5692C29.0052 13.5238 21.8505 8.70516 16.5305 9.63849C6.47585 11.4038 4.27318 22.0212 11.8745 32.0785C16.5279 38.2345 21.4612 42.1478 36.8345 51.8718C38.3639 52.8385 38.2078 52.8945 41.4878 50.1652Z" stroke="#554874" stroke-width="2" stroke-linecap="round" stroke-linejoin="round"/>
</svg>
