<svg width="92" height="91" viewBox="0 0 92 91" fill="none" xmlns="http://www.w3.org/2000/svg">
<path d="M37.1848 38.1488C37.1848 45.3342 32.6658 51.2442 27.1021 51.2442C21.5385 51.2442 17.0156 45.3342 17.0156 38.1488V37.3389" stroke="#554874" stroke-width="2" stroke-linecap="round" stroke-linejoin="round"/>
<path d="M75.9489 55.531C76.9424 54.4448 77.9681 53.3264 78.5642 52.6319C81.1151 49.7365 81.6942 45.6792 80.1879 42.0874C78.1005 37.2221 77.5215 37.2221 77.1733 30.9658C77.0597 27.374 74.2779 24.3613 70.6823 24.0131C70.6823 24.0131 68.4815 21.3486 63.7278 21.3486C58.1641 21.3486 53.0641 24.3613 51.7905 29.1112C50.3996 33.9785 52.0214 35.9466 50.6305 39.6557C49.0087 43.8265 46.2269 47.5337 49.7032 52.7473C50.0174 53.2639 51.378 54.6359 52.3848 55.7373M14.5841 31.8931C15.2786 21.8123 22.9296 21.6968 26.7522 22.2759C27.1023 22.3913 28.145 22.2759 28.4932 22.2759C35.4478 21.3486 38.9241 29.2267 38.9241 32.703C38.9241 33.9785 38.9241 37.1066 37.185 38.8438C37.185 38.8438 33.245 33.9785 33.0123 31.1986C33.0123 31.1986 19.7995 36.1794 18.8723 31.8931C18.8723 31.8931 17.945 35.3675 17.1332 36.2948V39.7711C17.1332 39.7711 14.234 36.2929 14.5841 31.8931Z" stroke="#554874" stroke-width="2" stroke-linecap="round" stroke-linejoin="round"/>
<path d="M48.0812 65.0251V62.3606C48.0812 58.0743 52.3694 54.598 56.6576 54.598C61.7576 58.8843 66.8576 58.8843 72.0731 54.598C76.3612 54.598 80.6513 58.0724 80.6513 62.3606V65.0251M10.9902 65.0251V62.3606C10.9902 58.0743 15.2784 54.598 19.5666 54.598C24.6666 58.8843 29.7666 58.8843 34.984 54.598C39.2721 54.598 43.5603 58.0724 43.5603 62.3606V65.0251M54.6876 38.9573C54.6876 45.9081 59.0931 51.1217 64.3085 51.1217C69.524 51.1217 73.9276 45.9081 73.9276 38.9554C73.9276 34.5537 72.1904 32.0047 68.7122 28.5283C65.2358 32.0047 54.803 36.4064 54.803 38.1455L54.6876 38.9573Z" stroke="#554874" stroke-width="2" stroke-linecap="round" stroke-linejoin="round"/>
</svg>
