<svg width="92" height="92" viewBox="0 0 92 92" fill="none" xmlns="http://www.w3.org/2000/svg">
<path d="M46.0668 30.4795L50.3815 39.2224L60.0517 40.6417L53.0498 47.4354L54.7151 57.0677L46.0668 52.5259L37.4186 57.0677L39.0839 47.4354L32.082 40.6417L41.7522 39.2224L46.0668 30.4795Z" stroke="#554874" stroke-width="2" stroke-linecap="round" stroke-linejoin="round"/>
<path d="M32.036 25.4072C27.9256 28.3658 24.8594 32.5518 23.2784 37.3632C21.6974 42.1745 21.683 47.3633 23.2373 52.1834C24.7916 57.0034 27.8346 61.2063 31.9285 64.1877C36.0224 67.1691 40.9564 68.7752 46.0209 68.7752C51.0853 68.7752 56.0193 67.1691 60.1132 64.1877C64.2072 61.2063 67.2501 57.0034 68.8044 52.1834C70.3587 47.3633 70.3443 42.1745 68.7633 37.3632C67.1823 32.5518 64.1161 28.3658 60.0057 25.4072" stroke="#554874" stroke-width="2" stroke-linecap="round" stroke-linejoin="round"/>
<path d="M31.98 25.4072C32.8825 23.984 33.2637 22.292 33.0587 20.6194C32.6045 16.7211 30.5229 14.9422 29.8416 13.0498C28.5548 14.0528 25.8108 14.0528 22.9533 18.1404C22.2506 19.1896 21.7779 20.3756 21.5662 21.6205C21.3545 22.8655 21.4086 24.1411 21.7249 25.3636C22.0413 26.5861 22.6127 27.7279 23.4017 28.7139C24.1907 29.6998 25.1794 30.5077 26.3029 31.0844M22.272 41.3222C22.026 37.0643 20.5121 35.3612 19.2064 34.3204C16.1218 31.8792 13.3589 32.0306 11.6368 31.2168C11.4665 32.8821 9.55513 34.8502 10.3878 39.7326C10.6556 40.9844 11.1839 42.1658 11.9384 43.2C12.6928 44.2341 13.6565 45.0979 14.7667 45.7351C15.877 46.3724 17.1089 46.7688 18.3824 46.8986C19.656 47.0283 20.9425 46.8886 22.1585 46.4885M59.9497 25.4072C59.0473 23.984 58.6661 22.292 58.871 20.6194C59.3252 16.7211 61.4068 14.9422 62.0881 13.0498C63.3749 14.0906 66.1189 14.1474 68.9764 18.1782C69.6726 19.2262 70.14 20.4092 70.3481 21.65C70.5563 22.8909 70.5005 24.1616 70.1844 25.3794C69.8684 26.5973 69.2991 27.7348 68.5138 28.7178C67.7285 29.7008 66.7448 30.5072 65.6269 31.0844M69.6577 41.3222C69.9037 37.0643 71.4176 35.3612 72.7234 34.3204C75.808 31.8792 78.5709 32.0306 80.293 31.2168C80.4633 32.8821 82.3746 34.8502 81.542 39.7326C81.2741 40.9844 80.7458 42.1658 79.9914 43.2C79.2369 44.2341 78.2732 45.0979 77.163 45.7351C76.0528 46.3724 74.8208 46.7688 73.5473 46.8986C72.2738 47.0283 70.9872 46.8886 69.7712 46.4885M42.7667 68.5538C34.6294 67.0967 31.4123 68.024 29.7659 69.5568C26.7949 72.2251 26.4732 75.0448 25.3377 76.7101C26.9652 77.1642 28.6305 79.4351 33.6832 79.4351C35.0128 79.3679 36.314 79.0263 37.5052 78.4319C38.6963 77.8375 39.7517 77.0031 40.6048 75.9811C41.4579 74.9591 42.0904 73.7717 42.4624 72.4935C42.8345 71.2154 42.9381 69.874 42.7667 68.5538ZM27.268 59.7731C22.7641 53.6417 18.8657 52.8848 16.6516 53.1497C12.7533 53.6039 10.9744 55.6855 9.08203 56.3668C10.1229 57.6536 10.1607 60.3976 14.2104 63.2551C15.2761 63.9577 16.4783 64.4268 17.7382 64.6317C18.9981 64.8365 20.287 64.7723 21.5204 64.4434C22.7537 64.1145 23.9034 63.5284 24.894 62.7234C25.8846 61.9185 26.6937 60.913 27.268 59.7731ZM49.163 68.5538C57.3003 67.0967 60.5174 68.024 62.1638 69.5568C65.1349 72.2251 65.4566 75.0448 66.592 76.7101C64.9645 77.1642 63.2992 79.4351 58.2465 79.4351C56.917 79.3679 55.6157 79.0263 54.4246 78.4319C53.2334 77.8375 52.1781 77.0031 51.325 75.9811C50.4718 74.9591 49.8394 73.7717 49.4673 72.4935C49.0953 71.2154 48.9917 69.874 49.163 68.5538ZM64.6618 59.7731C69.1657 53.6417 73.064 52.8848 75.2781 53.1497C79.1765 53.6039 80.9553 55.6855 82.8477 56.3668C81.9204 57.5779 81.788 60.3976 77.7382 63.2551C76.672 63.961 75.4682 64.4328 74.2063 64.6394C72.9443 64.846 71.6529 64.7827 70.4173 64.4537C69.1816 64.1246 68.0297 63.5373 67.0376 62.7305C66.0455 61.9237 65.2358 60.9158 64.6618 59.7731Z" stroke="#554874" stroke-width="2" stroke-linecap="round" stroke-linejoin="round"/>
</svg>
