<svg width="92" height="92" viewBox="0 0 92 92" fill="none" xmlns="http://www.w3.org/2000/svg">
<path d="M59.17 55.9029L48.1752 44.5163C44.3866 39.8402 50.2247 36.801 53.8959 40.7637" stroke="#554874" stroke-width="2" stroke-linecap="round" stroke-linejoin="round"/>
<path d="M63.0632 50.0477L54.765 41.7704C51.5063 38.4587 56.9508 33.6936 61.3884 39.3102" stroke="#554874" stroke-width="2" stroke-linecap="round" stroke-linejoin="round"/>
<path d="M69.6843 47.9339L62.0371 40.1127C58.8295 35.9816 65.1974 34.9918 67.0406 36.6306L78.7829 47.932C88.4114 26.6426 64.7849 3.11817 46.1958 18.7399C17.3103 -0.994012 -16.0962 45.9677 46.5194 77.62C49.0237 76.2297 51.6699 74.4363 54.458 72.2399L49.5946 70.4308C44.3507 68.2791 49.7819 63.4497 53.8941 63.7052C60.1258 64.2521 57.1736 61.9131 55.1242 59.9336L46.6898 51.5314C43.4632 47.932 46.6898 45.1673 48.9947 45.646" stroke="#554874" stroke-width="2" stroke-linecap="round" stroke-linejoin="round"/>
</svg>
