<svg width="92" height="92" viewBox="0 0 92 92" fill="none" xmlns="http://www.w3.org/2000/svg">
<path d="M15.8307 57.0031C13.7879 55.0885 12.362 52.6086 11.7349 49.88C11.1078 47.1514 11.308 44.2978 12.3099 41.6834C13.3118 39.0691 15.0701 36.8126 17.3602 35.202C19.6503 33.5914 22.3684 32.6997 25.1675 32.6408C27.9667 32.5819 30.7199 33.3584 33.0757 34.8712C35.4316 36.3841 37.2832 38.5646 38.3943 41.1344C39.5053 43.7043 39.8254 46.5469 39.3137 49.2995C38.8019 52.0521 37.4816 54.5898 35.5211 56.5886" stroke="#554874" stroke-width="2" stroke-linecap="round" stroke-linejoin="round"/>
<path d="M15.8535 56.8555C16.7543 52.6884 20.4464 49.7855 24.9654 49.6965C29.4845 49.6057 33.7726 52.3497 35.5458 56.4656" stroke="#554874" stroke-width="2" stroke-linecap="round" stroke-linejoin="round"/>
<path d="M25.4231 48.3472C28.3934 48.3472 30.8013 45.9393 30.8013 42.969C30.8013 39.9987 28.3934 37.5908 25.4231 37.5908C22.4528 37.5908 20.0449 39.9987 20.0449 42.969C20.0449 45.9393 22.4528 48.3472 25.4231 48.3472Z" stroke="#554874" stroke-width="2" stroke-linecap="round" stroke-linejoin="round"/>
<path d="M37.8301 39.7294L52.6816 29.3155M39.7111 52.2306L54.5627 62.6463M56.6632 35.3352C54.6209 33.4203 53.1954 30.9403 52.5688 28.2117C51.9422 25.4831 52.1428 22.6296 53.1451 20.0155C54.1473 17.4014 55.9058 15.1453 58.196 13.535C60.4862 11.9247 63.2043 11.0334 66.0034 10.9748C68.8024 10.9161 71.5554 11.6928 73.9111 13.2058C76.2667 14.7187 78.1181 16.8993 79.229 19.4691C80.3399 22.0389 80.6598 24.8814 80.148 27.6339C79.6362 30.3864 78.3159 32.9239 76.3555 34.9227" stroke="#554874" stroke-width="2" stroke-linecap="round" stroke-linejoin="round"/>
<path d="M56.6875 35.1874C57.5864 31.0204 61.2804 28.1174 65.7994 28.0285C70.3166 27.9395 74.6066 30.6835 76.3779 34.7976" stroke="#554874" stroke-width="2" stroke-linecap="round" stroke-linejoin="round"/>
<path d="M66.2581 26.6812C69.2284 26.6812 71.6363 24.2733 71.6363 21.303C71.6363 18.3327 69.2284 15.9248 66.2581 15.9248C63.2878 15.9248 60.8799 18.3327 60.8799 21.303C60.8799 24.2733 63.2878 26.6812 66.2581 26.6812Z" stroke="#554874" stroke-width="2" stroke-linecap="round" stroke-linejoin="round"/>
<path d="M56.9001 80.9895C54.8577 79.0746 53.4323 76.5946 52.8056 73.866C52.179 71.1374 52.3796 68.2839 53.3819 65.6698C54.3842 63.0557 56.1427 60.7996 58.4329 59.1893C60.7231 57.579 63.4412 56.6877 66.2402 56.6291C69.0392 56.5704 71.7923 57.3471 74.1479 58.8601C76.5036 60.373 78.355 62.5535 79.4658 65.1234C80.5767 67.6932 80.8967 70.5357 80.3849 73.2882C79.8731 76.0407 78.5527 78.5782 76.5924 80.577" stroke="#554874" stroke-width="2" stroke-linecap="round" stroke-linejoin="round"/>
<path d="M56.9248 80.8418C57.8237 76.6747 61.5177 73.7718 66.0367 73.6829C70.5539 73.592 74.8439 76.336 76.6171 80.4501" stroke="#554874" stroke-width="2" stroke-linecap="round" stroke-linejoin="round"/>
<path d="M66.4944 72.3335C69.4647 72.3335 71.8726 69.9256 71.8726 66.9553C71.8726 63.985 69.4647 61.5771 66.4944 61.5771C63.5241 61.5771 61.1162 63.985 61.1162 66.9553C61.1162 69.9256 63.5241 72.3335 66.4944 72.3335Z" stroke="#554874" stroke-width="2" stroke-linecap="round" stroke-linejoin="round"/>
</svg>
