<svg width="92" height="92" viewBox="0 0 92 92" fill="none" xmlns="http://www.w3.org/2000/svg">
<path d="M61.0499 55.2502C72.074 55.2502 81.0109 46.3133 81.0109 35.2891C81.0109 24.265 72.074 15.3281 61.0499 15.3281C50.0257 15.3281 41.0889 24.265 41.0889 35.2891C41.0889 46.3133 50.0257 55.2502 61.0499 55.2502Z" stroke="#554874" stroke-width="2" stroke-linecap="round" stroke-linejoin="round"/>
<path d="M49.0373 51.2306L42.834 57.4339L39.5659 54.1676L45.6934 48.04M38.2525 52.8543L44.1455 58.7491L19.6351 83.2595L13.7422 77.3646L38.2525 52.8543Z" stroke="#554874" stroke-width="2" stroke-linecap="round" stroke-linejoin="round"/>
<path d="M62.6285 37.2249C63.2833 41.8991 64.1992 44.0375 69.5887 44.8266C64.3544 45.5136 63.1016 48.2424 62.6285 52.1427C61.7618 48.1989 61.1657 45.7445 55.7023 44.8266C60.9954 43.7234 61.5688 41.9407 62.6285 37.2249ZM54.9208 17.9697C55.5661 23.0111 56.2682 27.1819 64.0989 28.4915C57.027 29.0895 56.1735 33.1733 54.9208 38.6044C53.6812 33.0976 53.0473 29.1879 46 28.4915C50.4452 26.8848 53.9878 25.5242 54.9208 17.9697ZM71.7385 27.1062C72.2684 30.891 73.0121 32.6263 77.3779 33.266C73.1389 33.8205 72.1208 36.0346 71.7385 39.193C71.0364 35.9986 70.5539 34.0078 66.1238 33.266C70.4157 32.3728 70.8794 30.927 71.7385 27.1062Z" stroke="#554874" stroke-width="2" stroke-linecap="round" stroke-linejoin="round"/>
</svg>
