<svg width="80" height="75" viewBox="0 0 80 75" fill="none" xmlns="http://www.w3.org/2000/svg">
<path d="M7.5052 59.0263L32.5499 57.2955L63.0422 62.6792L69.7085 10.5843L33.424 5L30.4444 22.745M5.18256 22.3681L30.229 20.6373M68.2618 21.7736L75 25.4303L65.5156 44.3885M57.2266 62.0642L53.267 70L32.7599 59.3751M37.0498 12.7577L62.8986 16.6131M36.4592 18.3383L61.03 21.888M34.2317 33.9287L59.2979 37.6284M35.0125 28.6294L60.8595 32.4848M35.8382 23.482L57.2302 26.4898M33.4725 39.1924L52.2313 42.022M31.805 44.2123L57.4474 48.1689M5.00845 19.5684C4.97419 19.0193 5.04434 18.4685 5.21487 17.9478C5.3854 17.4271 5.65293 16.9468 6.00202 16.5347C6.35111 16.1226 6.77485 15.7868 7.2488 15.5466C7.72276 15.3065 8.23754 15.1667 8.76345 15.1354L25.7668 13.9616C26.2919 13.921 26.8195 13.9892 27.3193 14.1622C27.819 14.3352 28.2812 14.6097 28.6791 14.9699C29.0771 15.33 29.403 15.7688 29.6382 16.2609C29.8733 16.753 30.0131 17.2889 30.0495 17.8376L32.706 59.8027C32.7386 60.3514 32.6673 60.9015 32.4961 61.4215C32.3249 61.9414 32.0573 62.421 31.7085 62.8327C31.3598 63.2445 30.9367 63.5803 30.4635 63.8211C29.9903 64.0618 29.4764 64.2027 28.951 64.2356L11.9459 65.4095C11.4206 65.4516 10.8925 65.3845 10.3922 65.212C9.89197 65.0395 9.42939 64.7651 9.03128 64.4047C8.63316 64.0442 8.30742 63.6048 8.0729 63.112C7.83837 62.6192 7.69971 62.0827 7.66495 61.5335C6.97569 47.5314 5.96874 33.5536 5.00845 19.5684Z" stroke="#554874" stroke-width="2" stroke-linecap="round" stroke-linejoin="round"/>
</svg>
