<svg width="70" height="70" viewBox="0 0 70 70" fill="none" xmlns="http://www.w3.org/2000/svg">
<path d="M41.8488 24.4933C40.2728 23.8317 38.5551 23.5793 36.8555 23.7598" stroke="#554874" stroke-width="2" stroke-linecap="round" stroke-linejoin="round"/>
<path d="M39.0157 27.9767C39.3674 27.9767 39.6525 27.6916 39.6525 27.3399C39.6525 26.9882 39.3674 26.7031 39.0157 26.7031C38.664 26.7031 38.3789 26.9882 38.3789 27.3399C38.3789 27.6916 38.664 27.9767 39.0157 27.9767Z" stroke="#554874" stroke-width="2" stroke-linecap="round" stroke-linejoin="round"/>
<path d="M23.1699 48.2073C17.0784 50.7157 10.9053 53.1161 9.37695 61.8763M40.8332 44.8809L36.2103 61.8325L38.4751 61.8019L43.903 58.0132C41.9867 56.6613 39.9086 55.359 40.4803 54.3294C41.8803 51.8444 44.4907 49.9077 46.7599 47.7523C44.8611 46.6454 42.6328 44.9932 40.8317 44.8823" stroke="#554874" stroke-width="2" stroke-linecap="round" stroke-linejoin="round"/>
<path d="M30.4253 51.0074C32.7441 52.0953 35.2174 52.826 38.8107 51.0074M46.8301 48.308C52.9216 50.8178 59.0947 53.2168 60.623 61.9785M28.5893 44.8795L33.2093 61.8297L30.9459 61.7991L25.518 58.0089C27.4343 56.6585 29.5124 55.3547 28.9407 54.3251C27.5407 51.8401 24.9303 49.9035 22.6611 47.7495C24.5599 46.6412 26.7882 44.9889 28.5893 44.8795ZM29.3301 33.6387C29.3899 39.3043 38.8866 39.2212 38.9201 33.6387H29.3301Z" stroke="#554874" stroke-width="2" stroke-linecap="round" stroke-linejoin="round"/>
<path d="M29.2013 27.9181C29.5529 27.9181 29.838 27.633 29.838 27.2813C29.838 26.9296 29.5529 26.6445 29.2013 26.6445C28.8496 26.6445 28.5645 26.9296 28.5645 27.2813C28.5645 27.633 28.8496 27.9181 29.2013 27.9181Z" stroke="#554874" stroke-width="2" stroke-linecap="round" stroke-linejoin="round"/>
<path d="M26.5449 24.5753C28.1209 23.9137 29.8386 23.6614 31.5383 23.8418" stroke="#554874" stroke-width="2" stroke-linecap="round" stroke-linejoin="round"/>
<path d="M17.7539 50.4615C18.7018 48.7276 19.5856 47.3786 19.5433 44.3409C18.8272 37.3919 10.7481 7.55881 37.0637 8.02693C49.1547 10.0103 51.7827 20.9769 50.8245 30.354C50.1902 36.5738 49.6622 39.6363 49.7512 44.268C50.2879 47.6907 51.0812 48.0786 51.6397 50.1611" stroke="#554874" stroke-width="2" stroke-linecap="round" stroke-linejoin="round"/>
<path d="M28.8852 44.5397L29.0368 41.1083C25.372 37.5339 22.3956 33.9143 22.5298 28.7649C23.1568 21.5724 27.281 16.0949 40.4162 15.0449C41.86 18.4662 43.2891 21.8233 45.4373 28.2443C44.9604 33.1195 42.7889 36.8383 39.9218 40.1939L40.7123 44.7264" stroke="#554874" stroke-width="2" stroke-linecap="round" stroke-linejoin="round"/>
<path d="M28.9902 41.0629C32.3473 44.4229 37.3013 43.4196 40.2165 39.8379" stroke="#554874" stroke-width="2" stroke-linecap="round" stroke-linejoin="round"/>
</svg>
