<svg width="81" height="81" viewBox="0 0 81 81" fill="none" xmlns="http://www.w3.org/2000/svg">
<path d="M24.1093 32.4926C24.6932 36.6607 25.5099 38.5676 30.3159 39.2713C25.6483 39.8838 24.5312 42.3172 24.1093 45.7951C23.3364 42.2784 22.8049 40.0897 17.9331 39.2713C22.653 38.2875 23.1643 36.6978 24.1093 32.4926ZM17.2361 15.3223C17.8116 19.8178 18.4376 23.537 25.4205 24.7048C19.1143 25.238 18.3532 28.8796 17.2361 33.7228C16.1308 28.8121 15.5655 25.3258 9.28125 24.7048C13.2452 23.2721 16.4042 22.0588 17.2361 15.3223ZM32.2329 23.4695C32.7054 26.8445 33.3686 28.392 37.2617 28.9623C33.4817 29.4568 32.5738 31.4311 32.2329 34.2476C31.6069 31.3991 31.1766 29.6238 27.2261 28.9623C31.0534 28.1658 31.4668 26.8766 32.2329 23.4695ZM59.1182 22.4908L66.6158 29.8314L44.3492 53.0379C39.879 57.6954 34.7507 61.0873 30.2552 63.1629L27.2835 60.4173C29.1735 55.5354 32.832 49.6376 36.8972 45.4391L59.1182 22.4908Z" stroke="#554874" stroke-width="2" stroke-linecap="round" stroke-linejoin="round"/>
<path d="M30.2565 63.1627C29.3148 64.3068 27.0181 65.1911 25.2412 65.6771C25.5838 64.2596 25.9972 62.0709 27.2831 60.4171M66.4297 18.1976L70.8915 22.4906C73.2371 24.7485 70.0983 28.4626 67.5941 26.063L62.8404 21.5118C60.5606 19.3282 63.7314 15.6022 66.4297 18.1976Z" stroke="#554874" stroke-width="2" stroke-linecap="round" stroke-linejoin="round"/>
</svg>
