<svg width="82" height="82" viewBox="0 0 82 82" fill="none" xmlns="http://www.w3.org/2000/svg">
<path opacity="0.992" d="M39.7549 38.4288C40.7891 41.0483 41.8098 43.6542 43.2153 47.391C44.6225 51.1142 46.3858 55.9667 46.6622 57.3179C46.9385 58.6692 45.7246 56.5329 44.8989 55.5123C44.0698 54.4916 43.6154 54.6018 43.0915 54.6306C42.566 54.6425 41.9607 54.5882 41.4639 54.6713C40.9553 54.768 40.5416 55.0155 40.3059 55.5123C40.0702 56.009 40.0177 56.7533 39.9753 57.084C39.9346 57.4281 39.8922 57.3586 40.4839 58.1046C41.0926 58.8625 42.332 60.4206 43.3662 61.5786C44.4157 62.7231 45.2414 63.4538 46.4282 64.4456C47.6269 65.4527 49.1579 66.7345 50.3295 67.3279C51.4875 67.9332 52.2877 67.8789 53.6526 67.4093C55.0174 66.9549 56.9621 66.1004 58.2303 65.0526C59.4985 64.0184 60.1055 62.7909 60.7396 61.1785C61.3737 59.5508 62.0349 57.5383 61.8145 55.4428C61.5805 53.3607 60.4632 51.1956 59.5256 48.8254C58.5745 46.4399 57.803 43.8611 57.0028 42.8692C56.2025 41.8774 55.404 42.4962 54.9343 42.8692C54.4647 43.2422 54.3562 43.3779 54.246 43.778C54.1358 44.1646 54.0256 44.8122 53.7492 44.8682C53.4728 44.936 53.032 44.3985 52.5352 44.1646C52.0402 43.9306 51.4875 43.9984 51.1568 44.3985C50.8262 44.7987 50.7025 45.5294 50.4397 45.6803C50.165 45.8193 49.7513 45.3785 49.3919 45.1022C49.1039 44.8598 48.7466 44.715 48.3712 44.6885C47.9982 44.6478 47.5455 44.6749 47.4217 45.2819C47.2963 45.9024 47.5031 47.1011 47.0759 46.1771C46.6486 45.2531 45.5601 42.1927 44.9243 40.2091C44.2767 38.2355 44.0698 37.3539 43.6985 36.7062C43.3756 36.1197 42.8518 35.6694 42.2235 35.438C41.6572 35.2024 41.0502 35.1752 40.6636 35.3261C40.2788 35.4787 40.1126 35.8093 40.0024 36.3604C39.8787 36.9131 39.8244 37.671 39.7549 38.4288Z" stroke="#554874" stroke-width="2" stroke-linecap="round" stroke-linejoin="round"/>
<path opacity="0.992" d="M32.1858 26.6141C31.0956 26.119 29.9936 25.6358 28.7389 27.5245C27.4843 29.3997 26.0499 33.674 25.2921 37.4514C24.5342 41.2289 24.4511 44.5249 24.9191 47.4479C25.3887 50.3708 26.4212 52.9344 27.6759 54.6027C28.917 56.2846 30.392 57.0849 31.7026 57.4426C33.0251 57.8156 34.1983 57.7478 35.3987 57.3595C36.5991 56.9713 37.8096 56.2575 38.7761 55.5962C39.7408 54.935 40.4444 54.3263 41.1463 53.7058M48.8267 37.5752C50.7426 36.6258 52.8789 37.0106 53.5825 38.4297C54.2997 39.8641 53.3078 41.78 51.3903 42.7464C49.4744 43.6958 47.3381 43.3109 46.6345 41.8919C45.9173 40.4575 46.9092 38.5416 48.8267 37.5752ZM48.5775 30.6272C50.2187 29.537 52.2312 29.7032 53.0722 30.985C53.9131 32.2667 53.2654 34.1707 51.6395 35.2592C49.9983 36.3341 47.9858 36.1697 47.1448 34.8862C46.3039 33.6045 46.9516 31.7021 48.5775 30.6272Z" stroke="#554874" stroke-width="2" stroke-linecap="round" stroke-linejoin="round"/>
<path opacity="0.992" d="M50.1089 22.1053C53.4455 21.21 54.2458 26.6152 49.4883 29.923L49.4205 10.3574H32.1845V51.0043H44.5919M16.3303 31.137L12.8834 58.2287L27.3592 54.6157M65.2747 30.2265L68.7216 58.2287L61.8279 59.1239M61.8279 64.5426L65.9648 62.7369L72.1685 66.3482L65.9919 71.0226L61.5668 69.5611L10.0147 70.5547L9.43652 61.84L42.5268 60.9312" stroke="#554874" stroke-width="2" stroke-linecap="round" stroke-linejoin="round"/>
</svg>
