<svg width="82" height="82" viewBox="0 0 82 82" fill="none" xmlns="http://www.w3.org/2000/svg">
<path d="M41.2554 48.2625C39.1811 46.5221 37.6925 44.1856 36.9916 41.5701C36.2908 38.9547 36.4116 36.187 37.3376 33.6425C38.2637 31.0981 39.9502 28.9002 42.1682 27.3471C44.3862 25.794 47.0283 24.9609 49.736 24.9609C52.4438 24.9609 55.0859 25.794 57.3039 27.3471C59.5219 28.9002 61.2084 31.0981 62.1345 33.6425C63.0605 36.187 63.1813 38.9547 62.4805 41.5701C61.7796 44.1856 60.291 46.5221 58.2167 48.2625" stroke="#554874" stroke-width="2" stroke-linecap="round" stroke-linejoin="round"/>
<path d="M38.8137 30.0931C36.493 28.4686 33.6348 27.8025 30.835 28.2336C28.0352 28.6647 25.5099 30.1598 23.7854 32.4073C22.0609 34.6547 21.2704 37.481 21.5787 40.2969C21.8869 43.1129 23.2701 45.7012 25.4399 47.5224C22.8628 49.0619 21.325 50.5996 20.418 52.1374M58.2165 48.2616C59.6526 48.7889 61.1361 49.5942 62.723 51.0388M41.2551 48.2616C36.2875 51.6695 32.4269 56.0539 30.0431 61.7405" stroke="#554874" stroke-width="2" stroke-linecap="round" stroke-linejoin="round"/>
<path d="M15.1144 48.581C-3.82387 30.0073 22.5693 0.430006 42.0349 22.0166C60.278 0.430006 87.1002 29.7207 68.323 48.581L42.0349 74.9895L15.1144 48.581Z" stroke="#554874" stroke-width="2" stroke-linecap="round" stroke-linejoin="round"/>
</svg>
