<svg width="90" height="90" viewBox="0 0 90 90" fill="none" xmlns="http://www.w3.org/2000/svg">
<g clip-path="url(#clip0_529_10253)">
<path d="M16.2598 34.8252C21.2967 37.2267 26.6873 38.8019 32.2248 39.4902C36.0683 39.2284 39.8757 38.581 43.5898 37.5577" stroke="#554874" stroke-width="1.875" stroke-linecap="round" stroke-linejoin="round"/>
<path d="M89.2047 35.035C85.4077 37.6201 80.8825 38.9212 76.2922 38.7475C67.9547 38.7475 60.7297 33.25 53.2547 33.25C46.5847 33.25 35.2822 44.1825 35.2822 46.16C35.2822 48.1375 38.5572 49.31 41.2122 48.01C42.7647 47.2525 49.4872 40.725 54.9222 40.725C60.3572 40.725 77.9697 58.565 79.5647 60.24C82.0372 62.835 77.2497 68.425 74.1922 65.365C71.1347 62.305 65.6672 57.46 65.6672 57.46" stroke="#554874" stroke-width="1.875" stroke-linecap="round" stroke-linejoin="round"/>
<path d="M100.5 52.707C93.0182 53.589 85.7693 55.8721 79.1325 59.437M73.45 64.6395C75.9225 67.232 71.135 72.822 68.0775 69.7645C65.02 66.707 61.625 63.482 61.625 63.482" stroke="#554874" stroke-width="1.875" stroke-linecap="round" stroke-linejoin="round"/>
<path d="M67.3379 69.0371C69.8079 71.6296 65.0204 77.2196 61.9629 74.1621C58.9054 71.1046 56.9004 69.2571 56.9004 69.2571" stroke="#554874" stroke-width="1.875" stroke-linecap="round" stroke-linejoin="round"/>
<path d="M52.5049 74.2902C53.0794 74.9587 53.7993 75.4869 54.6095 75.8342C55.4196 76.1815 56.2986 76.3387 57.1789 76.2938C58.0592 76.249 58.9176 76.0031 59.6882 75.5752C60.4589 75.1473 61.1214 74.5487 61.6249 73.8252" stroke="#554874" stroke-width="1.875" stroke-linecap="round" stroke-linejoin="round"/>
<path d="M52.5048 74.2903C53.8298 72.5478 53.7298 66.3353 46.8948 67.5703C48.4998 64.5228 47.0598 59.7053 40.9248 62.5453C40.8283 61.6586 40.4536 60.8253 39.8545 60.1646C39.2554 59.5039 38.4626 59.0497 37.5896 58.8671C36.7166 58.6845 35.8082 58.7829 34.9945 59.1481C34.1809 59.5133 33.5036 60.1267 33.0598 60.9003C32.9335 60.1069 32.548 59.3778 31.9637 58.8265C31.3793 58.2753 30.6289 57.933 29.8296 57.853C29.0302 57.7731 28.2269 57.96 27.5449 58.3846C26.863 58.8093 26.3408 59.4477 26.0598 60.2003C24.6998 62.9603 26.7998 67.9403 31.2898 65.1403C30.8348 70.0003 33.3898 71.4828 37.9998 69.5903C38.2473 74.3653 41.4173 73.9528 43.6823 72.8403C43.9029 73.7702 44.3936 74.6141 45.0926 75.2658C45.7916 75.9175 46.6677 76.3479 47.6108 76.5029C48.5538 76.6579 49.5216 76.5305 50.3925 76.1368C51.2633 75.7431 51.9982 75.1007 52.5048 74.2903Z" stroke="#554874" stroke-width="1.875" stroke-linecap="round" stroke-linejoin="round"/>
<path d="M3.6748 51.6973C11.8094 52.3075 19.6329 55.0816 26.3348 59.7323" stroke="#554874" stroke-width="1.875" stroke-linecap="round" stroke-linejoin="round"/>
</g>
<defs>
<clipPath id="clip0_529_10253">
<rect width="90" height="90" fill="white"/>
</clipPath>
</defs>
</svg>
