<svg width="84" height="84" viewBox="0 0 84 84" fill="none" xmlns="http://www.w3.org/2000/svg">
<path d="M7.875 64.6216C17.3285 59.8248 17.3285 59.7461 21.6387 59.0391C19.6717 61.6483 17.43 63.3003 18.3347 68.3963C23.6757 69.5058 28.7788 65.3531 33.4355 63.7886C32.0355 65.5981 29.771 69.3326 32.5307 70.0798C34.1306 70.1898 35.7334 69.9125 37.2032 69.2713M45.6032 62.7876L39.704 67.0401L41.6167 60.1206" stroke="#554874" stroke-width="2" stroke-linecap="round" stroke-linejoin="round"/>
<path d="M62.5244 39.0998L45.6019 62.7878L41.6172 60.1208L56.8929 35.507M62.5244 39.0998L76.1254 16.2815C75.3747 14.8535 73.9082 13.94 72.2947 13.8945L56.8929 35.507M62.5244 39.0998L56.8929 35.507M74.9162 18.5443C75.5759 24.1163 69.8954 32.9975 67.5364 37.4548" stroke="#554874" stroke-width="2" stroke-linecap="round" stroke-linejoin="round"/>
</svg>
