<svg width="70" height="70" viewBox="0 0 70 70" fill="none" xmlns="http://www.w3.org/2000/svg">
<path d="M24.8671 19.495C23.3926 18.5196 22.2871 17.1242 21.7123 15.5128C21.1374 13.9014 21.1233 12.1586 21.672 10.5391C22.2208 8.91957 23.3036 7.50838 24.7621 6.51182C26.2206 5.51526 27.9784 4.9856 29.7784 5.0003C31.5784 5.01499 33.3263 5.57326 34.7664 6.59348C36.2064 7.6137 37.2633 9.04236 37.7823 10.6706C38.3013 12.2988 38.2554 14.0411 37.6511 15.6429C37.0468 17.2447 35.916 18.6218 34.4238 19.573M8.73516 37.6755C9.81805 36.3171 11.3325 35.3217 13.0572 34.8347C14.7819 34.3476 16.6262 34.3946 18.3207 34.9686C20.0151 35.5426 21.4706 36.6137 22.4745 38.0251C23.4785 39.4365 23.978 41.1143 23.9003 42.8132C23.8225 44.512 23.1715 46.1428 22.0423 47.4671C20.9132 48.7914 19.3652 49.7397 17.6246 50.1735C15.8841 50.6072 14.0423 50.5035 12.3686 49.8777C10.6949 49.2518 9.27699 48.1366 8.32227 46.695" stroke="#554874" stroke-width="2" stroke-linecap="round" stroke-linejoin="round"/>
<path d="M24.8678 19.4941C25.4355 20.492 25.3254 22.1919 22.6485 22.4942H6.04688V35.8854C5.9977 36.2038 6.04296 36.5289 6.17762 36.8245C6.31228 37.1202 6.53107 37.3747 6.80968 37.5599C7.08828 37.7452 7.4158 37.8538 7.75583 37.8737C8.09586 37.8937 8.43509 37.8242 8.73583 37.673M8.32466 46.6926C8.04543 46.5697 7.73512 46.5238 7.42949 46.5603C7.12387 46.5968 6.83538 46.7141 6.59729 46.8987C6.3592 47.0834 6.1812 47.3278 6.08382 47.6039C5.98643 47.88 5.97363 48.1764 6.04688 48.4591V61.3465H41.3146" stroke="#554874" stroke-width="2" stroke-linecap="round" stroke-linejoin="round"/>
<path d="M27.085 51.9875L31.4754 59.2031C36.7535 56.2551 42.1451 59.2161 42.1451 65H50.9139C50.9139 59.2161 55.7963 56.5265 61.6078 59.2161L65.9999 51.9842C60.5824 49.0476 60.579 43.3092 65.9999 40.3644L61.6078 33.1537C56.3864 36.0822 50.9139 33.1602 50.9139 27.3486H42.1451C42.1451 33.1602 36.7552 36.0822 31.4719 33.1602L27.085 40.2344C32.6383 43.3059 32.3149 49.1483 27.085 51.9875Z" stroke="#554874" stroke-width="2" stroke-linecap="round" stroke-linejoin="round"/>
<path d="M46.5416 52.9476C50.5018 52.9476 53.7122 49.915 53.7122 46.174C53.7122 42.433 50.5018 39.4004 46.5416 39.4004C42.5814 39.4004 39.3711 42.433 39.3711 46.174C39.3711 49.915 42.5814 52.9476 46.5416 52.9476Z" stroke="#554874" stroke-width="2" stroke-linecap="round" stroke-linejoin="round"/>
<path d="M34.4236 19.5723C33.6185 20.1833 33.4258 22.1855 36.464 22.4943H50.9134V27.347" stroke="#554874" stroke-width="2" stroke-linecap="round" stroke-linejoin="round"/>
</svg>
