<svg width="72" height="72" viewBox="0 0 72 72" fill="none" xmlns="http://www.w3.org/2000/svg">
<path d="M68.25 36C68.25 42.3784 66.3586 48.6137 62.8149 53.9171C59.2712 59.2206 54.2345 63.3542 48.3416 65.7951C42.4486 68.236 35.9642 68.8747 29.7084 67.6303C23.4525 66.386 17.7061 63.3144 13.1958 58.8042C8.68558 54.294 5.61406 48.5476 4.36969 42.2917C3.12532 36.0358 3.76397 29.5514 6.2049 23.6585C8.64583 17.7655 12.7794 12.7288 18.0829 9.18511C23.3864 5.64143 29.6216 3.75 36 3.75V36" stroke="#554874" stroke-width="2" stroke-linecap="round" stroke-linejoin="round"/>
<path d="M51.7846 3.80218C50.6137 3.80058 49.4665 4.13122 48.476 4.75569C47.4856 5.38015 46.6927 6.27281 46.1894 7.32997C45.6861 8.38713 45.4931 9.56539 45.6328 10.7279C45.7725 11.8904 46.2392 12.9893 46.9786 13.8972L56.9011 25.5432L66.7261 14.0127L66.7756 13.9572L66.8236 13.8972C67.3606 13.2501 67.7603 12.5005 67.9982 11.6939C68.2362 10.8874 68.3074 10.0408 68.2075 9.20584C68.1076 8.37089 67.8387 7.56501 67.4172 6.83735C66.9958 6.10968 66.4305 5.47546 65.756 4.97335C65.0814 4.47124 64.3117 4.11175 63.4937 3.91679C62.6757 3.72184 61.8266 3.6955 60.9981 3.83939C60.1695 3.98327 59.379 4.29437 58.6746 4.75371C57.9703 5.21306 57.3668 5.81103 56.9011 6.51118C56.3348 5.67703 55.5731 4.99408 54.6823 4.52189C53.7915 4.0497 52.7988 3.80261 51.7906 3.80218H51.7846Z" stroke="#554874" stroke-width="2" stroke-linecap="round" stroke-linejoin="round"/>
</svg>
