<svg width="64" height="64" viewBox="0 0 64 64" fill="none" xmlns="http://www.w3.org/2000/svg">
<path d="M60.6119 32.4422C60.6119 38.0169 58.9588 43.4664 55.8617 48.1017C52.7645 52.7369 48.3624 56.3496 43.212 58.4829C38.0617 60.6163 32.3943 61.1745 26.9267 60.0869C21.4591 58.9993 16.4368 56.3148 12.4949 52.3729C8.55292 48.431 5.86844 43.4087 4.78086 37.9411C3.69329 32.4734 4.25147 26.8061 6.38483 21.6557C8.51818 16.5054 12.1309 12.1033 16.7661 9.00611C21.4013 5.90896 26.8509 4.25586 32.4256 4.25586V32.4422" stroke="#554874" stroke-width="2" stroke-linecap="round" stroke-linejoin="round"/>
<path d="M46.2209 4.30122C45.1976 4.29982 44.1949 4.5888 43.3293 5.13458C42.4636 5.68036 41.7706 6.46054 41.3308 7.38449C40.8909 8.30844 40.7222 9.33823 40.8443 10.3542C40.9664 11.3702 41.3742 12.3308 42.0205 13.1242L50.6927 23.3027L59.2797 13.2251L59.3229 13.1766L59.3649 13.1242C59.8343 12.5587 60.1836 11.9035 60.3915 11.1985C60.5995 10.4936 60.6617 9.75374 60.5744 9.02399C60.4871 8.29424 60.2521 7.58991 59.8837 6.95394C59.5154 6.31796 59.0214 5.76366 58.4318 5.32481C57.8423 4.88597 57.1695 4.57178 56.4546 4.40139C55.7397 4.231 54.9975 4.20798 54.2734 4.33374C53.5493 4.45949 52.8584 4.73139 52.2428 5.13285C51.6272 5.53432 51.0997 6.05694 50.6927 6.66887C50.1978 5.93982 49.532 5.34293 48.7535 4.93024C47.975 4.51755 47.1073 4.3016 46.2261 4.30122H46.2209Z" stroke="#554874" stroke-width="2" stroke-linecap="round" stroke-linejoin="round"/>
</svg>
