<svg width="60" height="59" viewBox="0 0 60 59" fill="none" xmlns="http://www.w3.org/2000/svg">
<path d="M17.6456 49.0387C27.1295 48.3038 31.9858 44.8084 34.0873 41.2112C35.184 39.3173 35.482 37.0714 34.9164 34.9612C34.6389 33.9143 34.1516 32.9333 33.4835 32.0766C32.8155 31.2199 31.9803 30.505 31.0276 29.9745C29.116 28.8897 26.8495 28.5952 24.72 29.1549C23.6629 29.4298 22.6724 29.9124 21.8074 30.574C20.9424 31.2356 20.2206 32.0628 19.6849 33.0063C17.7716 36.226 16.9503 40.5595 17.6472 49.0387M17.6472 49.0387C14.5875 49.2898 11.0829 48.7213 8.59724 46.9543C-0.518012 40.3916 -0.199134 25.433 3.17631 19.8131C4.83447 17.0355 7.06351 16.7844 8.59568 17.4776C10.5696 18.3619 11.0798 20.8869 11.59 23.8524C11.8451 25.3051 12.5451 27.5143 13.1206 28.4602C14.5844 26.7563 16.9425 20.2537 18.4094 16.2791C21.9139 6.62147 24.4634 -0.260125 28.671 1.19414C32.3031 2.45585 31.4118 7.94787 30.5189 13.3752C30.3136 14.485 30.1434 15.6009 30.0087 16.7212C30.9638 15.3317 32.048 13.4384 32.8771 11.9856C36.3194 5.98984 38.7398 1.94901 41.7357 1.19414C42.8183 0.878334 43.8387 1.06782 44.7316 1.57158C48.1724 3.59276 45.5591 9.14487 42.5648 15.5843C41.6081 17.5424 40.3979 20.2552 39.7602 22.0869C40.7044 21.0571 41.5978 19.9826 42.4372 18.8672C45.6882 14.7001 48.9999 10.4097 52.506 12.4278C56.2656 14.5737 53.2713 19.8763 50.0856 25.4946C49.129 27.1969 47.6637 29.785 47.0259 31.4272C47.8535 30.7956 48.9377 29.7234 49.6392 28.9655C52.3147 26.251 55.183 23.2223 57.7963 25.5578C59.2615 26.8826 59.3891 29.0918 58.1789 32.122C54.6728 41.0849 39.8862 58 26.0578 58C20.0037 58 18.2849 52.5095 17.6472 49.0387Z" stroke="#554874" stroke-width="2" stroke-linecap="round" stroke-linejoin="round"/>
</svg>
