<svg width="68" height="64" viewBox="0 0 68 64" fill="none" xmlns="http://www.w3.org/2000/svg">
<path d="M20.5161 61.6939C30.7423 61.6939 39.0322 53.3819 39.0322 43.1287C39.0322 32.8754 30.7423 24.5635 20.5161 24.5635C10.2899 24.5635 2 32.8754 2 43.1287C2 53.3819 10.2899 61.6939 20.5161 61.6939Z" stroke="#554874" stroke-width="1.875" stroke-linecap="round" stroke-linejoin="round"/>
<path d="M47.4839 61.7329C57.71 61.7329 66 53.421 66 43.1677C66 32.9145 57.71 24.6025 47.4839 24.6025C37.2577 24.6025 28.9678 32.9145 28.9678 43.1677C28.9678 53.421 37.2577 61.7329 47.4839 61.7329Z" stroke="#554874" stroke-width="1.875" stroke-linecap="round" stroke-linejoin="round"/>
<path d="M42.3841 5.95179C41.9209 3.93783 40.3705 2.37712 38.4973 2.06333C36.4477 1.71981 34.6016 2.80575 33.6444 4.54489C32.6868 2.80575 30.8407 1.71981 28.7901 2.06333C26.9169 2.37763 25.3674 3.93886 24.9043 5.95281C24.6583 7.00456 24.7187 8.11427 25.0769 9.12654C26.2545 12.8397 30.4187 16.8209 32.4762 18.618C32.8079 18.9084 33.2199 19.0667 33.6444 19.0667C34.069 19.0667 34.4809 18.9084 34.8126 18.618C36.8702 16.8209 41.0344 12.8397 42.2119 9.12706C42.5706 8.11434 42.6308 7.00393 42.3841 5.95179Z" stroke="#554874" stroke-width="1.875" stroke-linecap="round" stroke-linejoin="round"/>
</svg>
