<svg width="69" height="69" viewBox="0 0 69 69" fill="none" xmlns="http://www.w3.org/2000/svg">
<path d="M62.7188 34.5C62.7188 40.0811 61.0638 45.5369 57.963 50.1775C54.8623 54.818 50.4552 58.4349 45.2989 60.5707C40.1426 62.7065 34.4687 63.2654 28.9948 62.1765C23.5209 61.0877 18.4928 58.4001 14.5463 54.4537C10.5999 50.5072 7.9123 45.4791 6.82348 40.0052C5.73465 34.5313 6.29348 28.8575 8.42929 23.7012C10.5651 18.5448 14.182 14.1377 18.8225 11.037C23.4631 7.93625 28.9189 6.28125 34.5 6.28125V34.5" stroke="#554874" stroke-width="2" stroke-linecap="round" stroke-linejoin="round"/>
<path d="M48.3111 6.32666C47.2866 6.32526 46.2828 6.61457 45.4161 7.16098C44.5495 7.70739 43.8557 8.48847 43.4154 9.41348C42.975 10.3385 42.8061 11.3695 42.9283 12.3866C43.0505 13.4038 43.4589 14.3654 44.1059 15.1598L52.788 25.35L61.3849 15.2608L61.4282 15.2123L61.4702 15.1598C61.9402 14.5936 62.2899 13.9377 62.4981 13.2319C62.7062 12.5262 62.7685 11.7855 62.6811 11.0549C62.5937 10.3243 62.3585 9.61914 61.9897 8.98244C61.6209 8.34573 61.1263 7.79079 60.5361 7.35144C59.9459 6.91209 59.2723 6.59754 58.5566 6.42695C57.8408 6.25636 57.0979 6.23332 56.3729 6.35922C55.648 6.48512 54.9562 6.75733 54.3399 7.15926C53.7236 7.56118 53.1956 8.08441 52.788 8.69703C52.2926 7.96715 51.6261 7.36957 50.8466 6.95641C50.0672 6.54324 49.1985 6.32704 48.3164 6.32666H48.3111Z" stroke="#554874" stroke-width="2" stroke-linecap="round" stroke-linejoin="round"/>
</svg>
