<svg width="75" height="76" viewBox="0 0 75 76" fill="none" xmlns="http://www.w3.org/2000/svg">
<path d="M23.6545 60.6237C34.2831 59.7729 39.7254 55.7255 42.0806 51.5603C43.3097 49.3674 43.6436 46.7669 43.0097 44.3235C42.6987 43.1113 42.1526 41.9754 41.4039 40.9834C40.6553 39.9915 39.7193 39.1637 38.6516 38.5494C36.5093 37.2933 33.9693 36.9523 31.5828 37.6005C30.3981 37.9187 29.288 38.4775 28.3186 39.2436C27.3492 40.0097 26.5403 40.9674 25.9399 42.0599C23.7958 45.788 22.8753 50.8058 23.6563 60.6237M23.6563 60.6237C20.2273 60.9145 16.2998 60.2563 13.5141 58.2103C3.29878 50.6114 3.65614 33.2908 7.43897 26.7836C9.29726 23.5674 11.7953 23.2767 13.5124 24.0794C15.7246 25.1033 16.2964 28.0269 16.8681 31.4607C17.154 33.1428 17.9385 35.7007 18.5835 36.796C20.2239 34.8231 22.8666 27.2938 24.5105 22.6916C28.438 11.5091 31.2952 3.54091 36.0106 5.2248C40.0811 6.68572 39.0822 13.0449 38.0816 19.3292C37.8514 20.6142 37.6607 21.9063 37.5098 23.2035C38.5801 21.5946 39.7952 19.4023 40.7243 17.7202C44.5821 10.7777 47.2946 6.09885 50.6521 5.2248C51.8653 4.85912 53.0089 5.07853 54.0095 5.66183C57.8656 8.00215 54.9369 14.4309 51.5812 21.8871C50.5091 24.1543 49.1529 27.2955 48.4381 29.4165C49.4963 28.224 50.4976 26.9798 51.4383 25.6884C55.0816 20.8632 58.793 15.8954 62.7222 18.2321C66.9356 20.717 63.5799 26.8567 60.0097 33.3622C58.9377 35.3333 57.2955 38.33 56.5808 40.2315C57.5082 39.5002 58.7232 38.2587 59.5094 37.381C62.5078 34.238 65.7223 30.7311 68.651 33.4353C70.2931 34.9694 70.436 37.5273 69.0798 41.036C65.1506 51.4141 48.5793 71 33.082 71C26.2973 71 24.371 64.6426 23.6563 60.6237Z" stroke="#554874" stroke-width="2" stroke-linecap="round" stroke-linejoin="round"/>
</svg>
