<svg width="73" height="63" viewBox="0 0 73 63" fill="none" xmlns="http://www.w3.org/2000/svg">
<path d="M4.2126 51.4492L29.261 49.8545L59.7579 54.8149L66.4252 6.81527L30.1353 1.66992L27.1553 18.02M1.88962 17.6727L26.9398 16.0779M64.9783 17.125L71.7175 20.4942L62.2317 37.9621M53.9414 54.2482L49.9812 61.5602L29.4711 51.7706M33.7616 8.81778L59.6143 12.3701M33.171 13.9597L57.7455 17.2304M30.9431 28.3245L56.0131 31.7334M31.724 23.4418L57.5749 26.9941M32.5498 18.699L53.945 21.4704M30.1838 33.1744L48.9454 35.7816M28.516 37.7997L54.1622 41.4453M1.71548 15.0931C1.68121 14.5871 1.75138 14.0796 1.92194 13.5999C2.09249 13.1201 2.36006 12.6776 2.7092 12.2979C3.05834 11.9182 3.48215 11.6087 3.95617 11.3875C4.4302 11.1662 4.94505 11.0374 5.47104 11.0086L22.477 9.92702C23.0021 9.88962 23.5298 9.95244 24.0296 10.1119C24.5295 10.2713 24.9917 10.5242 25.3897 10.8561C25.7877 11.1879 26.1137 11.5922 26.3489 12.0456C26.5841 12.4991 26.7239 12.9928 26.7603 13.4984L29.4172 52.1645C29.4498 52.6701 29.3784 53.177 29.2072 53.6561C29.0361 54.1351 28.7684 54.577 28.4196 54.9564C28.0707 55.3358 27.6476 55.6452 27.1744 55.867C26.7011 56.0888 26.1871 56.2186 25.6617 56.249L8.65393 57.3306C8.12858 57.3694 7.60044 57.3075 7.10009 57.1486C6.59973 56.9897 6.13708 56.7369 5.73891 56.4047C5.34074 56.0726 5.01495 55.6678 4.78039 55.2137C4.54582 54.7596 4.40715 54.2653 4.37238 53.7593C3.68302 40.8579 2.67591 27.9789 1.71548 15.0931Z" stroke="#554874" stroke-width="2" stroke-linecap="round" stroke-linejoin="round"/>
</svg>
